HIERARCHY
ROOT Hips
{
	OFFSET 0.000000 89.005402 0.000000
	CHANNELS 6 Xposition Yposition Zposition Xrotation Yrotation Zrotation
	JOINT Spine
	{
		OFFSET 0.116900 10.681000 0.373400
		CHANNELS 3 Xrotation Yrotation Zrotation
		JOINT Spine1
		{
			OFFSET 0.000000 13.840401 0.053500
			CHANNELS 3 Xrotation Yrotation Zrotation
			JOINT Spine2
			{
				OFFSET 0.000000 14.712700 -0.366200
				CHANNELS 3 Xrotation Yrotation Zrotation
				JOINT Neck
				{
					OFFSET 0.000000 35.415497 -3.314200
					CHANNELS 3 Xrotation Yrotation Zrotation
					JOINT Head
					{
						OFFSET 0.000000 16.899200 1.218300
						CHANNELS 3 Xrotation Yrotation Zrotation
						JOINT HeadTop_End
						{
							OFFSET 0.000000 22.206207 2.192500
							CHANNELS 3 Xrotation Yrotation Zrotation
							End Site
							{
								OFFSET 0.000000 22.314178 0.000000
							}
						}
					}
				}
				JOINT LeftShoulder
				{
					OFFSET 12.896400 26.716293 -4.548400
					CHANNELS 3 Xrotation Yrotation Zrotation
					JOINT LeftArm
					{
						OFFSET 19.027000 -4.857010 -1.718400
						CHANNELS 3 Xrotation Yrotation Zrotation
						JOINT LeftForeArm
						{
							OFFSET 24.179897 0.000000 0.000000
							CHANNELS 3 Xrotation Yrotation Zrotation
							JOINT LeftHand
							{
								OFFSET 27.156403 0.000000 0.000000
								CHANNELS 3 Xrotation Yrotation Zrotation
								JOINT LeftHandIndex1
								{
									OFFSET 16.441200 0.000000 0.000000
									CHANNELS 3 Xrotation Yrotation Zrotation
									JOINT LeftHandIndex2
									{
										OFFSET 4.821899 0.000000 0.000000
										CHANNELS 3 Xrotation Yrotation Zrotation
										JOINT LeftHandIndex3
										{
											OFFSET 6.386497 0.000000 0.000000
											CHANNELS 3 Xrotation Yrotation Zrotation
											JOINT LeftHandIndex4
											{
												OFFSET 5.188988 0.000000 0.000000
												CHANNELS 3 Xrotation Yrotation Zrotation
												End Site
												{
													OFFSET -0.178703 5.185913 0.000177
												}
											}
										}
									}
								}
								JOINT LeftHandThumb1
								{
									OFFSET 6.534897 -5.032593 5.900300
									CHANNELS 3 Xrotation Yrotation Zrotation
									JOINT LeftHandThumb2
									{
										OFFSET 3.818176 -2.204422 2.204423
										CHANNELS 3 Xrotation Yrotation Zrotation
										JOINT LeftHandThumb3
										{
											OFFSET 3.252098 -1.877594 1.877601
											CHANNELS 3 Xrotation Yrotation Zrotation
											JOINT LeftHandThumb4
											{
												OFFSET 5.251778 -3.032120 3.032117
												CHANNELS 3 Xrotation Yrotation Zrotation
												End Site
												{
													OFFSET 0.000023 6.780014 0.000000
												}
											}
										}
									}
								}
							}
						}
					}
				}
				JOINT RightShoulder
				{
					OFFSET -12.896300 26.716293 -4.548400
					CHANNELS 3 Xrotation Yrotation Zrotation
					JOINT RightArm
					{
						OFFSET -19.027000 -4.857010 -1.718400
						CHANNELS 3 Xrotation Yrotation Zrotation
						JOINT RightForeArm
						{
							OFFSET -24.179897 0.000000 0.000000
							CHANNELS 3 Xrotation Yrotation Zrotation
							JOINT RightHand
							{
								OFFSET -27.156403 0.000000 0.000000
								CHANNELS 3 Xrotation Yrotation Zrotation
								JOINT RightHandThumb1
								{
									OFFSET -6.591202 -4.852203 5.988100
									CHANNELS 3 Xrotation Yrotation Zrotation
									JOINT RightHandThumb2
									{
										OFFSET -3.818176 -2.204422 2.204423
										CHANNELS 3 Xrotation Yrotation Zrotation
										JOINT RightHandThumb3
										{
											OFFSET -3.252098 -1.877594 1.877601
											CHANNELS 3 Xrotation Yrotation Zrotation
											JOINT RightHandThumb4
											{
												OFFSET -5.251778 -3.032120 3.032117
												CHANNELS 3 Xrotation Yrotation Zrotation
												End Site
												{
													OFFSET -0.000023 6.780014 0.000000
												}
											}
										}
									}
								}
								JOINT RightHandIndex1
								{
									OFFSET -16.029404 0.000000 0.000000
									CHANNELS 3 Xrotation Yrotation Zrotation
									JOINT RightHandIndex2
									{
										OFFSET -5.213303 0.000000 0.000000
										CHANNELS 3 Xrotation Yrotation Zrotation
										JOINT RightHandIndex3
										{
											OFFSET -6.386528 0.000000 0.000000
											CHANNELS 3 Xrotation Yrotation Zrotation
											JOINT RightHandIndex4
											{
												OFFSET -5.189026 0.000000 0.000000
												CHANNELS 3 Xrotation Yrotation Zrotation
												End Site
												{
													OFFSET 0.236702 5.183624 0.001972
												}
											}
										}
									}
								}
							}
						}
					}
				}
			}
		}
	}
	JOINT LeftUpLeg
	{
		OFFSET 14.073000 -7.904099 -1.463000
		CHANNELS 3 Xrotation Yrotation Zrotation
		JOINT LeftLeg
		{
			OFFSET -0.109806 -34.073280 4.093200
			CHANNELS 3 Xrotation Yrotation Zrotation
			JOINT LeftFoot
			{
				OFFSET 0.109806 -29.899420 -6.319000
				CHANNELS 3 Xrotation Yrotation Zrotation
				JOINT LeftToeBase
				{
					OFFSET 1.551100 -14.988700 20.535801
					CHANNELS 3 Xrotation Yrotation Zrotation
					JOINT LeftToe_End
					{
						OFFSET 0.221200 0.570800 13.248301
						CHANNELS 3 Xrotation Yrotation Zrotation
						End Site
						{
							OFFSET 0.000000 13.262435 0.000000
						}
					}
				}
			}
		}
	}
	JOINT RightUpLeg
	{
		OFFSET -13.839300 -7.904099 -1.463000
		CHANNELS 3 Xrotation Yrotation Zrotation
		JOINT RightLeg
		{
			OFFSET 0.109694 -34.073219 4.093300
			CHANNELS 3 Xrotation Yrotation Zrotation
			JOINT RightFoot
			{
				OFFSET -0.109694 -29.899384 -6.319200
				CHANNELS 3 Xrotation Yrotation Zrotation
				JOINT RightToeBase
				{
					OFFSET -1.551100 -14.988700 20.535801
					CHANNELS 3 Xrotation Yrotation Zrotation
					JOINT RightToe_End
					{
						OFFSET -0.221200 0.570900 13.248299
						CHANNELS 3 Xrotation Yrotation Zrotation
						End Site
						{
							OFFSET 0.000000 13.262440 0.000000
						}
					}
				}
			}
		}
	}
}
MOTION
Frames: 4
Frame Time: 0.033333
-2.049953 76.624641 2.680745 -2.157556 -49.748748 5.972635 13.749964 1.650118 3.416875 8.878359 2.172172 -4.180471 8.914765 1.887605 -4.617190 2.876322 6.193302 1.381706 -0.656478 30.462879 -16.332131 -0.000002 0.000000 -0.000001 10.987646 -33.408122 5.118229 -53.800379 7.005885 -27.284594 -86.419167 21.565504 -87.314864 -48.036341 -7.958372 -0.161804 9.479714 -1.289791 -20.785557 0.709471 2.796445 -28.467112 0.714021 2.804767 -28.559751 -0.000002 -0.000001 0.000001 0.699126 9.503395 -2.418105 5.975193 12.647531 1.348334 -23.873543 -17.664203 1.604946 0.000003 0.000001 0.000001 8.416826 24.730430 -2.523148 -21.195093 35.899406 36.813511 51.431400 124.114222 -57.523928 -4.997367 -2.770311 -12.833570 13.942486 -4.273680 -5.300374 7.113152 -20.767527 -2.619500 -3.463320 -24.899719 -18.660439 -0.000001 -0.000001 0.000001 0.357782 -5.832719 5.175849 0.094344 -0.933642 11.539852 0.777629 -2.578472 33.559953 -0.000000 -0.000000 0.000000 -51.889214 1.513777 -14.544415 75.165870 -7.607045 13.197649 27.459015 -7.131172 -2.020550 -46.499009 0.289455 -0.365490 0.000000 -0.000003 0.000000 -25.316231 -30.041388 -12.790200 65.217160 2.512050 -2.029014 -40.658583 -11.518956 -11.438537 -10.579250 0.890899 4.507639 0.000000 -0.000000 -0.000000 
13.322601 77.128456 3.148563 -1.241161 -53.183237 5.343503 14.086093 1.326049 5.404564 8.963804 1.649404 -5.106601 9.075480 1.189077 -5.299573 2.790087 6.334265 1.572592 -0.742329 33.146891 -17.344545 -0.000002 0.000000 0.000001 9.686233 -29.224149 3.744753 -57.002252 6.906111 -28.694799 -84.830123 20.654540 -88.070276 -47.274003 -10.070589 1.113727 9.479712 -1.289793 -20.785557 0.709472 2.796444 -28.467112 0.714022 2.804767 -28.559748 -0.000002 0.000000 -0.000000 0.699127 9.503392 -2.418107 5.975194 12.647527 1.348335 -23.873548 -17.664204 1.604947 0.000006 0.000001 0.000001 8.718718 25.533277 -2.747983 -24.431163 38.680577 37.514240 54.105982 123.413595 -62.764917 -5.665289 -3.244180 -7.904219 13.942485 -4.273681 -5.300374 7.113153 -20.767523 -2.619500 -3.463320 -24.899724 -18.660441 0.000000 -0.000000 -0.000000 0.357783 -5.832722 5.175849 0.094343 -0.933642 11.539853 0.777628 -2.578473 33.559957 0.000001 0.000001 0.000003 -46.453858 -4.627877 -8.383052 86.238802 -5.766575 13.307696 18.235891 -5.405463 -2.811131 -35.262057 4.857098 -6.646112 -0.000001 0.000002 -0.000001 -45.532739 -23.677124 -22.123999 66.498025 6.320707 -1.824165 -22.173371 -11.722766 -10.542227 -10.579278 0.890794 4.507632 0.000000 -0.000000 -0.000000 
27.827517 79.516098 3.974285 0.121446 -56.953198 4.904786 14.707921 1.372446 6.773410 8.715135 1.783261 -5.571799 8.873305 1.227336 -5.621933 2.690352 6.519105 1.746657 -0.745884 35.724738 -17.332932 -0.000001 0.000000 -0.000000 8.222927 -24.101390 2.364249 -56.063849 7.150531 -32.863431 -83.646779 20.841559 -88.482341 -45.062583 -10.147008 -0.477348 9.479713 -1.289796 -20.785557 0.709469 2.796444 -28.467108 0.714021 2.804767 -28.559744 -0.000002 0.000000 -0.000000 0.699126 9.503391 -2.418107 5.975195 12.647530 1.348336 -23.873545 -17.664204 1.604949 -0.000002 -0.000000 0.000000 9.113932 26.162396 -2.978710 -23.071788 41.047350 37.543289 54.003943 120.657983 -65.218430 -6.720519 -1.133990 -4.337997 13.942485 -4.273680 -5.300375 7.113155 -20.767527 -2.619500 -3.463322 -24.899723 -18.660442 -0.000003 -0.000001 0.000002 0.357782 -5.832721 5.175849 0.094343 -0.933642 11.539854 0.777629 -2.578473 33.559957 -0.000000 0.000000 0.000002 -33.527534 -9.566855 -0.806566 87.880813 -4.139086 13.255375 7.688823 -1.807159 -6.555405 -2.945303 1.026182 -12.271883 -0.000000 -0.000001 0.000003 -51.284991 -18.484766 -21.209955 49.294052 6.049484 -2.758226 2.884277 -10.359879 -5.425975 -9.591253 0.197235 4.219806 0.000000 -0.000000 -0.000000 
41.073242 82.073181 4.929998 1.486875 -60.867893 4.146900 15.278322 1.678485 7.613556 8.139367 2.072614 -5.747556 8.335254 1.509637 -5.733541 2.596315 6.743538 1.866093 -0.496397 38.329639 -16.232266 0.000000 0.000001 0.000000 6.086881 -19.151046 1.168496 -52.462232 9.543810 -36.380511 -82.799139 23.310271 -91.346014 -40.203040 -9.831366 0.499913 9.479713 -1.289790 -20.785557 0.709470 2.796447 -28.467108 0.714021 2.804766 -28.559743 -0.000001 -0.000000 0.000000 0.699127 9.503393 -2.418107 5.975196 12.647530 1.348335 -23.873545 -17.664204 1.604948 0.000001 0.000000 0.000001 9.764318 26.005515 -3.146396 -21.337229 45.322253 37.369017 56.260569 120.390444 -68.147236 -6.230464 1.299921 -4.236369 13.942483 -4.273681 -5.300376 7.113152 -20.767527 -2.619501 -3.463320 -24.899721 -18.660437 0.000000 0.000001 -0.000002 0.357783 -5.832720 5.175850 0.094344 -0.933638 11.539856 0.777629 -2.578473 33.559957 -0.000000 0.000000 0.000000 -22.445053 -7.802364 4.660738 74.974836 -3.525714 13.327485 10.875082 2.996844 -7.991036 -9.139281 5.559365 -20.090293 0.000002 0.000001 -0.000000 -45.316270 -7.122258 -14.617185 24.799162 2.503387 -2.742609 30.156918 -8.905950 2.947330 -6.419645 -1.363329 3.184289 0.000000 -0.000000 0.000000 
